HIERARCHY
ROOT Hips
{
	OFFSET 0.000000 0.000000 0.000000
	CHANNELS 6 Xposition Yposition Zposition Zrotation Yrotation Xrotation 
	JOINT LHipJoint
	{
		OFFSET 0.000000 0.000000 0.000000
		CHANNELS 3 Zrotation Yrotation Xrotation
		JOINT LeftUpLeg
		{
			OFFSET 1.363060 -1.794630 0.839290
			CHANNELS 3 Zrotation Yrotation Xrotation
			JOINT LeftLeg
			{
				OFFSET 2.448110 -6.726130 0.000000
				CHANNELS 3 Zrotation Yrotation Xrotation
				JOINT LeftFoot
				{
					OFFSET 2.562200 -7.039590 0.000000
					CHANNELS 3 Zrotation Yrotation Xrotation
					JOINT LeftToeBase
					{
						OFFSET 0.157640 -0.433110 2.322550
						CHANNELS 3 Zrotation Yrotation Xrotation
						End Site
						{
							OFFSET 0.000000 0.000000 0.000000
						}
					}
				}
			}
		}
	}
	JOINT RHipJoint
	{
		OFFSET 0.000000 0.000000 0.000000
		CHANNELS 3 Zrotation Yrotation Xrotation
		JOINT RightUpLeg
		{
			OFFSET -1.305520 -1.794630 0.839290
			CHANNELS 3 Zrotation Yrotation Xrotation
			JOINT RightLeg
			{
				OFFSET -2.542530 -6.985550 0.000000
				CHANNELS 3 Zrotation Yrotation Xrotation
				JOINT RightFoot
				{
					OFFSET -2.568260 -7.056230 0.000000
					CHANNELS 3 Zrotation Yrotation Xrotation
					JOINT RightToeBase
					{
						OFFSET -0.164730 -0.452590 2.363150
						CHANNELS 3 Zrotation Yrotation Xrotation
						End Site
						{
							OFFSET 0.000000 0.000000 0.000000
						}
					}
				}
			}
		}
	}
	JOINT LowerBack
	{
		OFFSET 0.000000 0.000000 0.000000
		CHANNELS 3 Zrotation Yrotation Xrotation
		JOINT Spine
		{
			OFFSET 0.028270 2.035590 -0.193380
			CHANNELS 3 Zrotation Yrotation Xrotation
			JOINT Spine1
			{
				OFFSET 0.056720 2.048850 -0.042750
				CHANNELS 3 Zrotation Yrotation Xrotation
				JOINT Neck
				{
					OFFSET 0.000000 0.000000 0.000000
					CHANNELS 3 Zrotation Yrotation Xrotation
					JOINT Neck1
					{
						OFFSET -0.054170 1.746240 0.172020
						CHANNELS 3 Zrotation Yrotation Xrotation
						JOINT Head
						{
							OFFSET 0.104070 1.761360 -0.123970
							CHANNELS 3 Zrotation Yrotation Xrotation
							End Site
							{
								OFFSET 0.000000 0.000000 0.000000
							}
						}
					}
				}
				JOINT LeftShoulder
				{
					OFFSET 0.000000 0.000000 0.000000
					CHANNELS 3 Zrotation Yrotation Xrotation
					JOINT LeftArm
					{
						OFFSET 3.362410 1.200890 -0.311210
						CHANNELS 3 Zrotation Yrotation Xrotation
						JOINT LeftForeArm
						{
							OFFSET 4.983000 -0.000000 -0.000000
							CHANNELS 3 Zrotation Yrotation Xrotation
							JOINT LeftHand
							{
								OFFSET 3.483560 -0.000000 -0.000000
								CHANNELS 3 Zrotation Yrotation Xrotation
								JOINT LeftFingerBase
								{
									OFFSET 0.000000 0.000000 0.000000
									CHANNELS 3 Zrotation Yrotation Xrotation
									JOINT LeftHandIndex1
									{
										OFFSET 0.715260 -0.000000 -0.000000
										CHANNELS 3 Zrotation Yrotation Xrotation
										End Site
										{
											OFFSET 0.000000 0.000000 0.000000
										}
									}
								}
								JOINT LThumb
								{
									OFFSET 0.000000 0.000000 0.000000
									CHANNELS 3 Zrotation Yrotation Xrotation
									End Site
									{
										OFFSET 0.000000 0.000000 0.000000
									}
								}
							}
						}
					}
				}
				JOINT RightShoulder
				{
					OFFSET 0.000000 0.000000 0.000000
					CHANNELS 3 Zrotation Yrotation Xrotation
					JOINT RightArm
					{
						OFFSET -3.136600 1.374050 -0.404650
						CHANNELS 3 Zrotation Yrotation Xrotation
						JOINT RightForeArm
						{
							OFFSET -5.241900 -0.000000 -0.000000
							CHANNELS 3 Zrotation Yrotation Xrotation
							JOINT RightHand
							{
								OFFSET -3.444170 -0.000000 -0.000000
								CHANNELS 3 Zrotation Yrotation Xrotation
								JOINT RightFingerBase
								{
									OFFSET 0.000000 0.000000 0.000000
									CHANNELS 3 Zrotation Yrotation Xrotation
									JOINT RightHandIndex1
									{
										OFFSET -0.622530 -0.000000 -0.000000
										CHANNELS 3 Zrotation Yrotation Xrotation
										End Site
										{
											OFFSET 0.000000 0.000000 0.000000
										}
									}
								}
								JOINT RThumb
								{
									OFFSET 0.000000 0.000000 0.000000
									CHANNELS 3 Zrotation Yrotation Xrotation
									End Site
									{
										OFFSET 0.000000 0.000000 0.000000
									}
								}
							}
						}
					}
				}
			}
		}
	}
}
MOTION
Frames: 8
Frame Time: 0.008333
-41.929949 17.356768 -18.202122 24.859692 81.534505 24.422039 0.039545 0.061475 -0.433591 -22.666259 -4.214857 -4.483599 -0.046604 9.515185 26.573802 2.565915 -11.067143 -2.137442 0.655700 5.179400 14.421000 -1.872525 -0.535892 -0.585872 17.886052 -4.066752 -9.387973 -2.849354 -12.906899 38.567955 0.557104 -11.286330 -25.949978 -0.240300 -3.154700 8.709800 -0.289341 -2.930349 -0.771018 0.636096 -3.757545 -2.333846 -0.258681 -1.894503 8.724806 -9.030710 -0.821178 -4.878122 1.248332 -0.485950 11.244592 5.577600 0.145600 0.108000 0.308996 1.992380 1.989312 -87.272836 8.848679 52.842522 130.291816 -52.128584 -92.613752 -1.323391 -0.653627 -28.303883 13.305353 27.261534 6.836100 -7.125000 0.000000 0.000000 -16.932500 56.988900 -5.073500 -3.996105 -1.775498 1.210886 86.056234 -4.630001 28.447279 -61.760815 57.663871 -39.399166 -0.176949 -0.646735 12.727795 -21.351244 20.613376 -8.083500 7.125000 0.000000 0.000000 4.651700 -7.295200 4.037100 
-41.909570 17.395076 -18.200451 23.124857 81.324813 22.663443 0.018336 0.058128 -0.454570 -22.628011 -4.747436 -4.899312 0.014337 9.688719 26.964084 2.405950 -9.702781 -2.963312 0.299700 3.520200 9.730600 -1.843465 -0.530003 -0.538685 17.940078 -4.563344 -9.265908 -2.736133 -12.718740 38.022110 0.576590 -11.123674 -25.572270 -0.211500 -2.960600 8.169100 -0.399055 -2.882625 -0.538279 0.695129 -3.686099 -2.361484 0.449623 -1.914092 8.366713 -9.486097 -0.840867 -4.461318 1.093607 -0.455129 11.046444 5.517300 0.182500 -0.110900 0.443719 1.960642 2.008924 -88.006884 9.135203 52.923740 130.340916 -51.990341 -92.575243 -1.355244 -0.642915 -27.971244 12.852003 27.348248 6.646800 -7.125000 0.000000 0.000000 -17.419100 56.969500 -5.217200 -3.944489 -1.669350 1.235480 85.535610 -4.966966 28.297325 -62.171976 57.708859 -39.870027 -0.152571 -0.596632 13.514910 -21.356317 19.910452 -7.820500 7.125000 0.000000 0.000000 4.571600 -8.091300 3.895400 
-41.902666 17.397192 -18.203013 22.185234 81.132747 21.798279 0.002472 0.088081 -0.425285 -22.674391 -5.294343 -4.690666 0.003505 9.685564 26.925463 2.325569 -9.024499 -3.557295 0.281400 3.411600 9.427000 -1.838027 -0.517903 -0.522034 17.936777 -4.861361 -9.470060 -2.738427 -12.703795 37.983434 0.507228 -10.812408 -25.436229 -0.220200 -3.020900 8.336800 -0.625936 -2.840720 -0.367027 0.750552 -3.618482 -2.402762 1.253198 -1.938629 8.124194 -10.157483 -0.652070 -4.566665 1.165226 -0.198989 11.096411 5.666500 0.291800 -0.015800 0.531083 1.867712 1.971811 -88.709369 9.540904 53.075173 130.497763 -51.811902 -92.612639 -1.393585 -0.612604 -27.472862 12.756864 27.336135 6.601100 -7.125000 0.000000 0.000000 -17.467900 56.910700 -5.207300 -3.925252 -1.628384 1.189107 84.987624 -5.138088 28.156401 -62.423012 57.705149 -40.211359 -0.127525 -0.546755 14.305484 -21.358994 19.184007 -7.545300 7.125000 0.000000 0.000000 4.494500 -8.914000 3.755600 
-41.889859 17.395410 -18.204126 23.327302 81.015557 22.960828 0.000958 0.089289 -0.445250 -23.030111 -5.862762 -4.424195 0.003814 9.709957 26.967553 2.248434 -8.516325 -3.946114 0.297800 3.509000 9.699300 -1.843751 -0.532218 -0.514233 17.662571 -4.821894 -9.428060 -2.728179 -12.668208 37.889501 0.676582 -11.119900 -24.972751 -0.162300 -2.595800 7.155500 -0.857434 -2.930837 -0.389864 0.757911 -3.719966 -2.397536 1.488305 -2.003920 8.256942 -10.660004 -0.498938 -4.826032 1.283360 0.013982 11.052439 5.897000 0.411100 -0.003400 0.478397 1.872468 1.959233 -88.970552 9.826705 53.012579 130.865421 -51.653592 -92.900307 -1.400746 -0.608360 -27.482063 12.724336 27.369777 6.593500 -7.125000 0.000000 0.000000 -17.512500 56.929600 -5.229300 -3.964490 -1.670473 1.176022 84.775808 -4.990864 28.492477 -62.479591 57.717433 -40.245360 -0.110330 -0.527045 14.226801 -21.365424 18.462648 -7.280300 7.125000 0.000000 0.000000 4.426900 -9.697100 3.629100 
-41.877720 17.391513 -18.204349 23.650444 80.938075 23.313625 0.007960 0.087153 -0.470754 -23.214590 -6.184523 -4.187877 -0.004632 9.700634 26.928823 2.205813 -8.183943 -4.321710 0.296900 3.503700 9.684500 -1.851058 -0.539830 -0.530115 17.560713 -4.841002 -9.434804 -2.749836 -12.694057 37.971144 0.570940 -10.855427 -25.138564 -0.181300 -2.742500 7.562700 -0.807849 -3.063406 -0.573167 0.755557 -3.895419 -2.363336 1.426989 -2.071168 8.673921 -11.086679 -0.308499 -5.262032 1.443034 0.248498 11.262608 6.189300 0.506400 0.165200 0.367791 1.911699 1.953704 -89.163909 9.268126 52.701181 130.821185 -51.710130 -92.896897 -1.385882 -0.613973 -27.789044 12.563904 27.240966 6.484900 -7.125000 0.000000 0.000000 -17.614900 56.778700 -5.196300 -4.023633 -1.801776 1.152802 84.686754 -4.652080 29.005397 -62.479487 57.750973 -40.176836 -0.100959 -0.520660 14.218480 -21.398420 17.689060 -7.008400 7.125000 0.000000 0.000000 4.344500 -10.516000 3.489000 
-41.869368 17.387615 -18.206020 23.788461 80.860575 23.548136 0.011912 0.077455 -0.492585 -23.310737 -6.293278 -4.193424 0.005359 9.725679 26.981525 2.201747 -8.080400 -4.607054 0.300400 3.523900 9.741000 -1.857678 -0.536667 -0.547780 17.472145 -5.039454 -9.606128 -2.777962 -12.724565 38.061578 0.409214 -10.406324 -25.314755 -0.217800 -3.004300 8.290700 -0.775108 -3.109226 -0.707984 0.750936 -3.952471 -2.337696 1.367684 -2.092239 8.949264 -11.255328 -0.286061 -5.538017 1.356693 0.329660 11.234125 6.214400 0.559800 0.183100 0.328279 1.968201 1.959047 -89.308962 8.624312 52.638312 130.485771 -51.864277 -92.620511 -1.379093 -0.603719 -27.429165 12.363970 27.078095 6.351500 -7.125000 0.000000 0.000000 -17.736200 56.588000 -5.151000 -4.038143 -1.852107 1.154870 84.678153 -4.327238 29.146834 -62.487997 57.757298 -40.163690 -0.090172 -0.510616 14.644284 -21.384263 16.904393 -6.713100 7.125000 0.000000 0.000000 4.292200 -11.359300 3.372500 
-41.860236 17.384274 -18.203347 22.569969 80.649834 22.330424 0.022784 0.079849 -0.476394 -23.211471 -6.165433 -4.281654 0.044186 9.779450 27.151504 2.206800 -8.031228 -4.809457 0.320600 3.639400 10.064500 -1.851670 -0.525212 -0.539242 17.563695 -4.734925 -9.570027 -2.784464 -12.746389 38.114288 0.538786 -10.693937 -25.027536 -0.173600 -2.684200 7.400700 -0.666394 -3.054294 -0.499328 0.747549 -3.891994 -2.366856 1.422171 -2.053968 8.807854 -11.497129 -0.015687 -5.869056 1.464882 0.693111 11.448869 6.366700 0.689700 0.440100 0.322732 1.878294 1.896777 -89.525667 8.606410 52.843384 130.282672 -51.921152 -92.419603 -1.381032 -0.572185 -26.253776 12.207962 26.974233 6.251800 -7.125000 0.000000 0.000000 -17.846700 56.460200 -5.128700 -4.093217 -1.826118 1.094711 84.732224 -4.464326 29.396787 -62.696122 57.788932 -40.274275 -0.072606 -0.502160 14.311808 -21.394010 16.139166 -6.431500 7.125000 0.000000 0.000000 4.228700 -12.179500 3.250400 
-41.854111 17.378261 -18.204349 19.926443 80.465722 19.748387 0.034742 0.086532 -0.465415 -22.860433 -6.091315 -4.438729 0.089690 9.846607 27.356095 2.205125 -7.895242 -5.047440 0.334900 3.719300 10.288300 -1.838567 -0.487886 -0.553251 17.920550 -4.579960 -9.641278 -2.794648 -12.791386 38.212368 0.405283 -10.353040 -25.199658 -0.196400 -2.853700 7.871700 -0.346938 -3.055970 -0.484845 0.781526 -3.916807 -2.368223 1.656570 -2.063435 8.958716 -11.964211 0.292237 -6.351485 1.558617 1.124819 11.734029 6.566100 0.850600 0.711300 0.318181 1.849335 1.856702 -90.026707 8.359048 52.209721 130.352258 -51.871748 -92.525133 -1.373802 -0.606060 -27.975296 12.087348 26.962311 6.193100 -7.125000 0.000000 0.000000 -17.949900 56.415400 -5.140000 -4.108004 -1.883208 1.035647 84.513820 -4.383873 30.022679 -62.775441 57.814489 -40.282143 -0.041592 -0.481896 13.223825 -21.432325 15.395284 -6.160500 7.125000 0.000000 0.000000 4.146800 -12.990200 3.116900 
